<?xml version="1.0" encoding="utf-8"?>
<svg viewBox="301.296 234.3871 421.4714 421.4714" xmlns="http://www.w3.org/2000/svg">
  <path d="M350.655 313.645C350.819 313.653 350.982 313.656 351.146 313.667C353.911 313.86 356.368 314.455 358.192 316.728C359.162 317.936 359.563 319.443 359.291 320.974C358.808 323.703 357.092 324.937 354.939 326.448C352.487 326.5 349.971 326.012 348.192 324.174C346.994 322.936 346.527 321.39 346.656 319.686C346.873 316.823 348.61 315.439 350.655 313.645Z" transform="matrix(0.9999999999999999, 0, 0, 0.9999999999999999, 0, 1.4210854715202004e-14)"/>
  <path fill="#228040" d="M351.826 316.684C352.639 316.782 353.833 316.964 354.528 317.468C355.435 318.128 355.866 318.843 355.841 319.987C355.805 321.652 354.536 322.784 353.461 323.893C353.291 323.859 353.109 323.861 352.949 323.792C351.594 323.197 350.649 322.197 350.037 320.921C350.188 318.851 350.685 318.364 351.826 316.684Z" transform="matrix(0.9999999999999999, 0, 0, 0.9999999999999999, 0, 1.4210854715202004e-14)"/>
  <path d="M366.779 334.972Q367.687 334.919 368.596 334.917C370.761 334.924 372.819 335.786 374.273 337.415C375.575 338.875 376.102 340.774 375.83 342.704C375.415 345.657 373.631 347.184 371.305 348.8C370.476 348.962 369.61 349.145 368.763 349.166C366.991 349.209 365.275 348.209 364.149 346.905C362.744 345.278 362.487 342.483 362.837 340.455C363.29 337.831 364.72 336.5 366.779 334.972Z" transform="matrix(0.9999999999999999, 0, 0, 0.9999999999999999, 0, 1.4210854715202004e-14)"/>
  <path fill="#228040" d="M368.169 337.731C369.158 338.072 370.795 338.701 371.535 339.478C372.126 340.099 372.465 340.664 372.504 341.516C372.6 343.622 371.224 344.82 369.869 346.205C369.256 345.899 368.64 345.532 368.068 345.157C366.556 344.164 366.08 343.253 365.685 341.526C366.009 339.722 366.888 338.981 368.169 337.731Z" transform="matrix(0.9999999999999999, 0, 0, 0.9999999999999999, 0, 1.4210854715202004e-14)"/>
  <path d="M366.746 280.634C369.107 280.599 371.301 280.573 373.528 281.494Q374.058 281.715 374.563 281.988Q375.068 282.26 375.544 282.582Q376.019 282.903 376.461 283.27Q376.902 283.637 377.305 284.046Q377.708 284.455 378.068 284.902Q378.428 285.349 378.743 285.829Q379.057 286.31 379.322 286.819Q379.587 287.328 379.8 287.861Q380.013 288.393 380.169 288.944Q380.326 289.495 380.426 290.059Q380.525 290.623 380.566 291.195Q380.607 291.766 380.589 292.339Q380.571 292.911 380.494 293.479Q380.417 294.047 380.283 294.604Q380.148 295.16 379.957 295.7Q379.766 296.24 379.52 296.758C377.846 300.203 375.127 301.725 371.66 302.986C369.969 303.065 368.246 303.178 366.59 302.751C363.757 302.019 361.185 300.023 359.825 297.428Q359.562 296.92 359.349 296.389Q359.137 295.858 358.977 295.309Q358.818 294.76 358.713 294.198Q358.608 293.636 358.558 293.066Q358.509 292.496 358.516 291.924Q358.522 291.353 358.585 290.784Q358.647 290.216 358.765 289.656Q358.883 289.096 359.055 288.551C360.38 284.322 362.975 282.508 366.746 280.634Z" transform="matrix(0.9999999999999999, 0, 0, 0.9999999999999999, 0, 1.4210854715202004e-14)"/>
  <path fill="#228040" d="M367.419 285.499C367.558 285.495 367.696 285.488 367.836 285.488C370.4 285.483 372.692 285.72 374.521 287.741C375.633 288.971 376.052 290.553 375.875 292.183C375.563 295.05 373.756 296.769 371.641 298.513C370.895 298.507 370.162 298.503 369.419 298.44C367.43 298.271 365.573 297.471 364.378 295.793C363.383 294.398 363.031 292.851 363.311 291.167C363.77 288.407 365.28 287.126 367.419 285.499Z" transform="matrix(0.9999999999999999, 0, 0, 0.9999999999999999, 0, 1.4210854715202004e-14)"/>
  <path d="M583.545 243.569Q585.419 243.454 587.297 243.475C599.258 243.507 610.385 248.932 618.697 257.407C626.537 265.4 631.381 275.993 631.206 287.282C631.039 298.022 625.726 306.159 618.255 313.43C629.368 321.08 642.182 323.747 653.748 330.24C650.368 337.898 644.864 345.399 638.199 350.515C627.163 358.985 614.855 358.561 601.725 356.887L600.299 364.989C607.844 374.152 610.745 382.093 613.488 393.483C623.789 397.151 637.58 407.085 644.315 415.731C659.924 417.411 673.681 422.604 683.776 435.196C692.703 446.33 695.514 460.801 694.01 474.77C702.267 485.426 708.637 497.137 709.868 510.764Q710.077 513.156 710.08 515.556Q710.083 517.957 709.879 520.349Q709.675 522.742 709.267 525.107Q708.858 527.473 708.248 529.795C705.616 539.854 699.779 548.678 696.272 558.429C693.387 566.449 692.476 575.098 689.446 583.061C688.384 585.851 687.048 588.54 685.06 590.795C683.586 592.466 682.271 593.061 680.196 593.733C675.137 595.37 669.653 595.386 664.492 596.665C657.084 598.501 650.089 601.581 642.547 603.035C637.255 604.056 631.949 604.461 626.583 604.834C628.523 615.424 630.918 625.887 634.759 635.968L687.274 635.966C697.376 635.948 708.561 635.053 718.508 636.82C720.062 637.095 721.575 637.707 722.39 639.169C722.981 640.231 722.808 641.328 722.35 642.396C721.564 644.228 719.463 645.373 717.664 645.938C711.948 647.734 701.602 646.076 695.239 646.078L651.793 646.385L402.893 646.183Q372.587 646.399 342.28 646.226C331.722 646.258 320.711 647.194 310.227 646.374C308.034 646.202 305.658 645.795 303.715 644.71C302.658 644.12 301.599 643.096 301.376 641.872C301.131 640.523 301.444 639.334 302.379 638.305C306.321 633.967 318.608 635.957 324.036 635.836C324.032 622.814 324.445 609.596 323.663 596.605C321.77 595.719 319.918 594.798 318.452 593.269C316.547 591.282 314.976 588.277 315.193 585.453C315.354 583.368 316.5 581.685 318.124 580.432C320.801 578.365 323.796 578.062 327.056 577.742C344.24 576.056 362.416 577.509 379.709 577.493L411.082 577.456C417.35 577.45 423.963 577.063 430.181 577.87C433.06 578.245 436.223 579.555 437.942 582.005C439.262 583.886 439.502 586.176 438.97 588.376C438.06 592.14 435.612 594.122 432.49 596.128L432.432 604.834C432.448 615.367 432.571 625.913 432.127 636.438L451.413 636.518C454.813 598.515 457.259 558.35 448.657 520.891C439.647 526.741 430.276 533.111 420.141 536.798C414.98 538.675 409.085 539 404.165 541.424C401.298 542.836 398.848 544.972 396.338 546.926C389.899 551.937 383.371 555.906 375.226 557.395C369.951 558.359 363.53 557.885 359.061 554.631C352.661 549.97 348.461 541.919 343.781 535.662C339.253 529.608 334.523 523.712 330.763 517.132C322.199 502.141 323.022 487.759 322.339 471.169C322.08 464.872 321.32 458.733 320.238 452.533C312.988 443.231 307.912 435.443 306.585 423.409C305.673 415.143 306.408 404.11 312.002 397.475C314.864 394.08 317.876 392.808 322.228 392.503C323.424 389.764 324.63 387.047 326.784 384.912C333.1 378.653 343.297 379.867 351.47 379.902L351.405 370.852C349.233 369.931 347.085 368.832 345.291 367.275C343.192 365.454 341.961 363.17 341.833 360.372Q341.812 359.889 341.839 359.406Q341.867 358.923 341.942 358.445Q342.018 357.967 342.142 357.5Q342.265 357.032 342.435 356.579Q342.605 356.126 342.82 355.693Q343.034 355.259 343.291 354.849Q343.548 354.44 343.845 354.058Q344.142 353.676 344.476 353.326Q344.909 352.874 345.403 352.491Q345.898 352.108 346.443 351.802Q346.989 351.496 347.573 351.274Q348.158 351.052 348.769 350.918C355.001 349.552 373.932 350.289 381.34 350.386C388.385 350.477 392.578 350.496 397.756 355.808L399.192 360.344C397.239 365.905 393.939 367.456 389.803 371.085L389.085 371.723C387.931 380.487 387.849 390.954 389.163 399.68C392.011 399.543 394.967 399.285 397.811 399.558C401.225 399.885 403.941 401.67 405.992 404.378C408.733 407.994 410.531 413.39 409.76 417.938C408.362 426.187 395.77 436.001 389.195 440.387C389.18 445.333 389.136 450.301 389.537 455.233C397.129 448.093 403.646 443.912 413.579 440.71C419.867 429.959 428.012 420.378 439.705 415.401C446.779 412.391 453.622 409.956 460.302 406.014C459.083 402.804 457.804 399.573 456.894 396.259C453.563 384.128 461.013 381.341 468.215 374.06C471.163 371.081 473.297 367.775 475.378 364.158C472.96 362.392 470.752 360.538 468.557 358.501C461.683 358.497 452.732 357.998 446.583 354.588C438.79 350.266 428.754 339.621 426.288 330.925C425.833 329.322 425.958 328.481 426.755 327.046C432.588 322.379 447.634 322.51 455.243 320.862L455.93 320.71C451.71 316.764 447.663 312.834 444.763 307.782C439.271 298.217 438.211 286.04 441.243 275.501C444.253 265.035 451.094 256.699 460.53 251.395C465.628 248.53 474.395 245.475 480.168 247.451C481.051 247.753 481.956 248.376 482.346 249.243C483.801 252.479 475.156 265.795 473.602 270.493C472.28 274.487 471.23 279.552 473.379 283.436C480.391 296.109 518.777 288.802 530.9 288.636C540.682 288.501 549.913 289.457 559.319 292.129C569.264 287.3 575.277 288.416 584.001 285.316C588.461 283.731 590.269 281.8 592.227 277.585C589.761 265.499 574.768 251.577 574.61 247.087C577.005 244.886 580.477 244.343 583.545 243.569Z" transform="matrix(0.9999999999999999, 0, 0, 0.9999999999999999, 0, 1.4210854715202004e-14)"/>
  <path fill="#EEC2AE" d="M500.145 562.507C501.767 564.064 503.746 567.868 503.992 570.107C503.743 570.027 503.493 569.951 503.246 569.866C501.741 569.349 500.05 568.332 499.485 566.765C498.905 565.152 499.488 563.944 500.145 562.507Z" transform="matrix(0.9999999999999999, 0, 0, 0.9999999999999999, 0, 1.4210854715202004e-14)"/>
  <path fill="#EEC2AE" d="M480.521 376.472L479.832 376.333C479.494 374.982 480.236 373.563 480.744 372.325C481.761 369.85 483.577 365.564 486.038 364.554C486.561 365.135 487.004 365.268 486.877 366.117C486.377 369.462 482.532 373.728 480.521 376.472Z" transform="matrix(0.9999999999999999, 0, 0, 0.9999999999999999, 0, 1.4210854715202004e-14)"/>
  <path fill="#CF8D7D" d="M460.408 329.176C460.969 329.241 461.361 329.55 461.844 329.827L462.021 330.837L460.934 332.184C457.913 333.553 456.521 333.113 453.389 332.21C452.059 331.931 451.004 331.64 449.759 331.06C451.48 329.452 457.869 329.457 460.408 329.176Z" transform="matrix(0.9999999999999999, 0, 0, 0.9999999999999999, 0, 1.4210854715202004e-14)"/>
  <path fill="#EEC2AE" d="M468.336 386.95C468.743 388.004 470.303 402.498 470.16 403.159C470.055 403.643 469.77 404.07 469.575 404.526C467.853 399.98 466.728 395.143 465.431 390.46C466.315 389.211 467.322 388.093 468.336 386.95Z" transform="matrix(0.9999999999999999, 0, 0, 0.9999999999999999, 0, 1.4210854715202004e-14)"/>
  <path fill="#EEC2AE" d="M489.502 432.84C487.408 432.07 484 430.765 482.845 428.704C482.241 427.627 482.13 426.828 482.596 425.659C483.156 424.255 485.359 423.344 486.619 422.655C487.302 425.019 489.964 430.821 489.502 432.84Z" transform="matrix(0.9999999999999999, 0, 0, 0.9999999999999999, 0, 1.4210854715202004e-14)"/>
  <path fill="#EEC2AE" d="M389.32 410.884C391.086 410.418 393.485 409.54 395.313 409.796C396.961 410.026 397.669 410.781 398.711 411.948Q394.138 415.481 389.406 418.799L389.32 410.884Z" transform="matrix(0.9999999999999999, 0, 0, 0.9999999999999999, 0, 1.4210854715202004e-14)"/>
  <path fill="#C47751" d="M389.406 418.799Q394.138 415.481 398.711 411.948C399.393 413.641 399.875 414.944 399.176 416.769C397.597 420.888 392.803 424.541 389.526 427.399L389.406 418.799Z" transform="matrix(0.9999999999999999, 0, 0, 0.9999999999999999, 0, 1.4210854715202004e-14)"/>
  <path fill="#864A2B" d="M356.743 396.712C358.271 399.015 359.765 401.369 361.536 403.495C361.577 407.812 360.714 410.454 358.892 414.261C357.278 408.453 354.987 403.36 352.316 397.98C353.966 397.75 355.219 397.379 356.743 396.712Z" transform="matrix(0.9999999999999999, 0, 0, 0.9999999999999999, 0, 1.4210854715202004e-14)"/>
  <path fill="#864A2B" d="M441.65 337.982C447.907 339.838 454.552 340.649 460.682 342.606C461.925 344.404 462.486 346.269 463.158 348.322C462.574 348.427 462.408 348.482 461.736 348.457C453.455 348.148 447.381 343.364 441.65 337.982Z" transform="matrix(0.9999999999999999, 0, 0, 0.9999999999999999, 0, 1.4210854715202004e-14)"/>
  <path fill="#864A2B" d="M350.936 433.024C350.647 441.235 350.455 449.465 349.854 457.659C348.61 458.342 347.212 459.293 345.869 459.705C345.132 453.975 344.948 448.18 343.596 442.535C346.668 439.598 348.881 436.778 350.936 433.024Z" transform="matrix(0.9999999999999999, 0, 0, 0.9999999999999999, 0, 1.4210854715202004e-14)"/>
  <path fill="#EEC2AE" d="M499.088 555.096C498.185 554.028 497.161 552.71 497.161 551.243C497.161 549.591 498.251 548.166 499.425 547.117C505.898 541.33 519.165 539.178 527.582 539.422C520.766 547.467 506.694 540.744 499.088 555.096Z" transform="matrix(0.9999999999999999, 0, 0, 0.9999999999999999, 0, 1.4210854715202004e-14)"/>
  <path fill="#864A2B" d="M502.232 494.14L516.473 493.994L509.84 510.098C507.048 504.966 504.007 499.723 502.232 494.14Z" transform="matrix(0.9999999999999999, 0, 0, 0.9999999999999999, 0, 1.4210854715202004e-14)"/>
  <path fill="#864A2B" d="M552.485 301.249C557.82 303.936 559.727 307.472 562.555 312.502L550.647 312.482C548.798 310 546.364 307.797 544.193 305.587C547.019 304.227 549.767 302.816 552.485 301.249Z" transform="matrix(0.9999999999999999, 0, 0, 0.9999999999999999, 0, 1.4210854715202004e-14)"/>
  <path fill="#EEC2AE" d="M316.974 427.536C322.742 425.186 328.41 422.491 334.138 420.031L336.685 427.412C331.759 429.63 324.477 432.082 322.201 437.385L321.336 437.616C319.57 434.411 318.317 430.934 316.974 427.536Z" transform="matrix(0.9999999999999999, 0, 0, 0.9999999999999999, 0, 1.4210854715202004e-14)"/>
  <path fill="#CF8D7D" d="M688.804 492.519L691.001 488.126Q691.673 489.064 692.298 490.035Q692.923 491.005 693.498 492.006Q694.074 493.006 694.6 494.033Q695.126 495.061 695.6 496.113Q696.074 497.165 696.495 498.24Q696.917 499.314 697.285 500.408Q697.652 501.502 697.965 502.613Q698.278 503.724 698.536 504.849Q698.794 505.974 698.995 507.111Q699.197 508.247 699.342 509.392Q699.487 510.537 699.575 511.688Q699.663 512.839 699.695 513.993Q699.726 515.146 699.7 516.3Q699.673 517.454 699.59 518.605Q699.507 519.756 699.367 520.902Q699.227 522.048 699.03 523.185Q698.023 529.096 695.801 534.665C694.624 531.31 695.334 525.521 695.209 521.795C694.852 511.172 692.926 502.343 688.804 492.519Z" transform="matrix(0.9999999999999999, 0, 0, 0.9999999999999999, 0, 1.4210854715202004e-14)"/>
  <path fill="#C47751" d="M609.433 319.533C616.739 324.328 624.257 328.224 631.873 332.446C623.301 331.785 615.96 329.292 607.739 327.043C600.499 326.848 592.717 331.916 585.842 330.79L585.412 330.157C587.81 326.405 604.497 321.709 609.433 319.533Z" transform="matrix(0.9999999999999999, 0, 0, 0.9999999999999999, 0, 1.4210854715202004e-14)"/>
  <path fill="#C2C0C1" d="M350.05 357.533C359.608 357.218 378.044 356.207 386.854 357.871C388.413 358.165 389.549 358.51 390.458 359.905C390.513 361.156 390.476 361.359 389.893 362.465Q388.358 362.665 386.816 362.795C380.783 363.279 353.719 364.385 349.852 361.106C349.399 359.548 349.649 359.069 350.05 357.533Z" transform="matrix(0.9999999999999999, 0, 0, 0.9999999999999999, 0, 1.4210854715202004e-14)"/>
  <path fill="#CF8D7D" d="M334.17 390.579Q340.654 389.171 347.236 388.336Q353.818 387.5 360.448 387.244C360.673 392.673 361.346 398.07 361.536 403.495C359.765 401.369 358.271 399.015 356.743 396.712C355.219 397.379 353.966 397.75 352.316 397.98C345.984 396.173 338.891 397.375 332.433 395.644C332.302 393.805 333.37 392.224 334.17 390.579Z" transform="matrix(0.9999999999999999, 0, 0, 0.9999999999999999, 0, 1.4210854715202004e-14)"/>
  <path fill="#B15034" d="M332.433 395.644C338.953 393.79 347.529 390.328 353.889 394.217C354.96 394.872 355.871 395.816 356.743 396.712C355.219 397.379 353.966 397.75 352.316 397.98C345.984 396.173 338.891 397.375 332.433 395.644Z" transform="matrix(0.9999999999999999, 0, 0, 0.9999999999999999, 0, 1.4210854715202004e-14)"/>
  <path fill="#CF8D7D" d="M320.597 402.446C329.199 403.305 339.18 405.405 346.784 400.525C347.926 400.684 348.636 401.353 349.318 402.238C351.988 405.708 353.318 412.078 353.767 416.389C349.509 414.493 346.079 411.811 342.398 409C335.446 409.055 328.424 409.55 321.643 407.783C320.665 409.846 318.8 415.132 316.775 416.116L316.19 414.456C316.837 409.93 318.5 406.444 320.597 402.446Z" transform="matrix(0.9999999999999999, 0, 0, 0.9999999999999999, 0, 1.4210854715202004e-14)"/>
  <path fill="#EFF0F1" d="M452.867 274.492C456.504 279.12 450.81 294.351 464.362 306.666C467.773 309.765 472.306 310.953 475.947 313.596C473.384 315.035 470.901 316.675 468.401 318.225C462.305 313.388 455.838 308.167 452.557 300.904C448.636 292.221 449.715 283.172 452.867 274.492Z" transform="matrix(0.9999999999999999, 0, 0, 0.9999999999999999, 0, 1.4210854715202004e-14)"/>
  <path fill="#B15034" d="M321.643 407.783C328.424 409.55 335.446 409.055 342.398 409C346.079 411.811 349.509 414.493 353.767 416.389C352.405 421.918 348.644 426.408 345.212 430.78C342.909 425.256 341.299 419.27 339.477 413.562C331.731 413.634 324.418 417.273 316.787 417.533C315.916 416.443 316.186 415.799 316.19 414.456L316.775 416.116C318.8 415.132 320.665 409.846 321.643 407.783Z" transform="matrix(0.9999999999999999, 0, 0, 0.9999999999999999, 0, 1.4210854715202004e-14)"/>
  <path fill="#864A2B" d="M602.785 335.558C609.101 334.58 615.754 339.156 621.958 340.228C626.552 341.023 631.575 340.569 636.229 340.467C631.551 343.34 627.179 345.615 621.831 346.936C608.88 348.719 600.316 345.858 589.116 339.672C593.65 338.149 598.157 336.771 602.785 335.558Z" transform="matrix(0.9999999999999999, 0, 0, 0.9999999999999999, 0, 1.4210854715202004e-14)"/>
  <path fill="#EEC2AE" d="M437.438 428.108C437.524 428.508 437.762 428.903 437.695 429.306C437.592 429.927 430.336 442.062 429.504 443.902C427.996 447.242 426.857 451.14 425.058 454.29C424.701 454.916 424.623 454.978 424.227 455.459C421.218 455.961 418.2 455.462 415.21 455.872C407.116 456.982 399.594 464.732 395.118 470.975C394.06 472.45 393.101 474.125 391.901 475.478C391.379 474.634 390.347 473.259 390.287 472.26C390.174 470.389 392.167 467.116 393.248 465.651C399.859 456.696 409.617 451.072 420.567 449.53C424.895 440.748 429.691 434.207 437.438 428.108Z" transform="matrix(0.9999999999999999, 0, 0, 0.9999999999999999, 0, 1.4210854715202004e-14)"/>
  <path fill="#EEC2AE" d="M619.446 480.155C621.285 484.714 618.239 496.444 618.035 501.936C617.732 510.104 618.423 519.032 621.118 526.803C618.053 527.657 615.014 528.733 611.979 529.696C606.85 510.323 610.556 497.889 619.446 480.155Z" transform="matrix(0.9999999999999999, 0, 0, 0.9999999999999999, 0, 1.4210854715202004e-14)"/>
  <path fill="#CF8D7D" d="M682.9 480.955C680.596 477.256 680.37 471.068 679.478 466.76C675.598 448.028 665.936 441.358 653.792 428.319L654.327 427.724C665.304 430.999 674.582 437.773 680.036 447.978C685.266 457.763 686.117 470.378 682.9 480.955Z" transform="matrix(0.9999999999999999, 0, 0, 0.9999999999999999, 0, 1.4210854715202004e-14)"/>
  <path fill="#C2C0C1" d="M612.316 404.952C618.733 407.958 624.824 411.413 630.26 416.008C617.694 420.518 610.681 429.17 605.116 440.979C603.484 444.443 601.807 448.256 600.887 451.973C599.794 450.208 598.898 448.492 597.177 447.263C603.09 439.835 610.017 414.857 612.316 404.952Z" transform="matrix(0.9999999999999999, 0, 0, 0.9999999999999999, 0, 1.4210854715202004e-14)"/>
  <path fill="#C2C0C1" d="M598.254 377.881C604.844 391.936 603.244 404.844 598.066 419.153C595.735 425.595 593.034 432.067 589.94 438.179L579.32 440.632C586.431 427.935 595.069 414.538 596.314 399.709C596.597 396.336 596.552 391.671 594.312 388.976C595.838 385.323 597.093 381.666 598.254 377.881Z" transform="matrix(0.9999999999999999, 0, 0, 0.9999999999999999, 0, 1.4210854715202004e-14)"/>
  <path fill="#C47751" d="M550.003 432.088L550.174 432.32C550.063 435.514 541.994 445.376 539.771 448.478C529.418 448.596 522.137 450.82 512.941 455.523C509.069 452.559 495.303 446.879 495.051 446.641C494.736 446.344 494.587 445.91 494.354 445.544L495.728 442.989C498.659 441.974 512.525 442.569 516.567 442.474Q513.561 446.261 510.511 450.013C523.762 444.248 537.076 438.554 550.003 432.088Z" transform="matrix(0.9999999999999999, 0, 0, 0.9999999999999999, 0, 1.4210854715202004e-14)"/>
  <path fill="#CF8D7D" d="M486.619 422.655C505.327 418.398 516.112 423.173 533.859 427.906C522.2 431.497 501.894 437.918 490.118 433.188C489.899 433.1 489.707 432.956 489.502 432.84C489.964 430.821 487.302 425.019 486.619 422.655Z" transform="matrix(0.9999999999999999, 0, 0, 0.9999999999999999, 0, 1.4210854715202004e-14)"/>
  <path fill="#C2C0C1" d="M465.944 470.89L477.136 463.077C476.407 472.445 476.346 480.848 482.94 488.525C485.297 491.269 488.832 493.779 492.452 494.405C494.339 501.264 498.548 508.218 501.981 514.461C499.136 515.135 496.217 515.472 493.325 515.886C484.132 500.877 474.582 486.252 465.944 470.89Z" transform="matrix(0.9999999999999999, 0, 0, 0.9999999999999999, 0, 1.4210854715202004e-14)"/>
  <path fill="#C47751" d="M322.201 437.385C324.477 432.082 331.759 429.63 336.685 427.412C337.744 430.61 339.473 434.049 338.209 437.383C337.065 438.662 335.987 439.108 334.31 439.231C332.233 439.383 330.092 439.124 328.022 438.929C333.291 441.3 337.71 442.687 343.596 442.535C344.948 448.18 345.132 453.975 345.869 459.705C342.467 460.692 339.081 460.895 335.554 460.866C334.432 460.748 333.42 460.66 332.365 460.218C330.272 459.34 329.573 452.713 328.578 450.571C326.473 446.041 323.059 442.407 321.336 437.616L322.201 437.385Z" transform="matrix(0.9999999999999999, 0, 0, 0.9999999999999999, 0, 1.4210854715202004e-14)"/>
  <path fill="#CF8D7D" d="M322.201 437.385C328.247 439.788 333.583 446.706 336.105 452.587C337.197 455.134 338.04 457.348 337.082 460.081C336.586 460.344 336.074 460.66 335.554 460.866C334.432 460.748 333.42 460.66 332.365 460.218C330.272 459.34 329.573 452.713 328.578 450.571C326.473 446.041 323.059 442.407 321.336 437.616L322.201 437.385Z" transform="matrix(0.9999999999999999, 0, 0, 0.9999999999999999, 0, 1.4210854715202004e-14)"/>
  <path fill="#EEC2AE" d="M377.151 546.199C373.642 546.638 369.198 548.519 365.884 546.704C361.94 544.545 341.752 515.522 338.92 510.294C336.559 505.935 334.712 501.354 333.606 496.516C332.595 492.099 330.578 476.238 332.856 472.641C334.415 471.734 335.1 471.834 336.87 471.786C337.51 490.393 340.527 504.322 350.656 520.333C353.422 524.705 356.641 529.421 360.435 532.963C360.803 533.307 361.206 533.613 361.6 533.929C366.482 538.419 371.895 542.173 377.151 546.199Z" transform="matrix(0.9999999999999999, 0, 0, 0.9999999999999999, 0, 1.4210854715202004e-14)"/>
  <path fill="#C2C0C1" d="M407.569 584.771C412.537 584.584 417.527 584.364 422.499 584.454C425.072 584.501 430.267 584.567 432.048 586.413C432.053 587.049 432.229 587.458 431.746 587.954C430.658 589.074 428.782 589.333 427.3 589.473C419.693 590.196 411.518 589.438 403.846 589.461L348.125 589.511C341.512 589.643 334.718 590.035 328.116 589.651C325.911 589.523 323.838 589.393 322.309 587.683C322.392 586.783 322.594 586.319 323.264 585.68C323.912 585.062 324.544 584.886 325.428 584.799C332.689 584.088 340.831 584.808 348.169 584.803C367.942 584.79 387.806 585.233 407.569 584.771Z" transform="matrix(0.9999999999999999, 0, 0, 0.9999999999999999, 0, 1.4210854715202004e-14)"/>
  <path fill="#C2C0C1" d="M557.454 459.47C559.622 464.697 562.083 469.813 564.205 475.052C554.907 483.213 545.309 491.11 536.429 499.732C532.936 503.123 530.224 507.305 526.541 510.508C525.293 511.594 524.189 512.611 522.431 512.565C521.556 512.543 521.202 512.487 520.498 512.03C519.411 506.399 523.908 498.297 526.643 493.52C528.084 493.99 529.389 493.484 530.783 493.062C540.683 490.07 548.778 478.226 553.11 469.369C554.564 466.398 555.458 463.095 557.036 460.218L557.454 459.47Z" transform="matrix(0.9999999999999999, 0, 0, 0.9999999999999999, 0, 1.4210854715202004e-14)"/>
  <path fill="#EFF0F1" d="M471.613 425.422C476.047 431.318 479.81 436.56 486.357 440.321C486.774 458.757 488.187 476.44 492.452 494.405C488.832 493.779 485.297 491.269 482.94 488.525C476.346 480.848 476.407 472.445 477.136 463.077C479.751 460.652 482.564 458.327 485.024 455.753C479.13 449.862 473.196 444.066 467.033 438.457C468.534 434.122 469.904 429.677 471.613 425.422Z" transform="matrix(0.9999999999999999, 0, 0, 0.9999999999999999, 0, 1.4210854715202004e-14)"/>
  <path fill="#C47751" d="M501.266 301.886C517.572 298.382 536.285 296.566 552.485 301.249C549.767 302.816 547.019 304.227 544.193 305.587C546.364 307.797 548.798 310 550.647 312.482L493.013 312.467C495.601 308.798 498.418 305.352 501.266 301.886Z" transform="matrix(0.9999999999999999, 0, 0, 0.9999999999999999, 0, 1.4210854715202004e-14)"/>
  <path fill="#C2C0C1" d="M467.177 259.144C463.594 268.34 459.632 277.58 464.145 287.373C466.711 292.94 471.808 296.701 477.501 298.66C481.932 300.185 486.6 300.727 491.243 301.17C488.736 304.845 486.764 308.807 484.314 312.485C481.406 312.523 478.747 312.684 475.947 313.596C472.306 310.953 467.773 309.765 464.362 306.666C450.81 294.351 456.504 279.12 452.867 274.492C455.624 267.534 460.932 262.957 467.177 259.144Z" transform="matrix(0.9999999999999999, 0, 0, 0.9999999999999999, 0, 1.4210854715202004e-14)"/>
  <path fill="#864A2B" d="M582.48 347.806C585.725 349.897 588.374 352.248 591.019 355.055C590.133 380.121 586.008 388.923 567.503 406.311C567.123 403.85 566.728 401.395 566.463 398.919C572.185 393.245 575.242 385.188 578.634 377.988L569.364 378.042C574.137 374.896 577.823 371.178 581.759 367.076C574.582 366.703 567.128 366.249 559.995 365.378C570.247 362.785 576.929 356.61 582.48 347.806Z" transform="matrix(0.9999999999999999, 0, 0, 0.9999999999999999, 0, 1.4210854715202004e-14)"/>
  <path fill="#C47751" d="M495.878 455.927C501.603 457.741 506.382 459.876 509.226 465.534C509.75 466.575 510.158 467.665 510.547 468.762C517.758 460.221 522.801 458.314 533.728 457.441Q534.309 457.398 534.891 457.373C528.273 469.184 521.94 481.61 516.473 493.994L502.232 494.14C498.204 481.029 497.251 469.375 495.878 455.927Z" transform="matrix(0.9999999999999999, 0, 0, 0.9999999999999999, 0, 1.4210854715202004e-14)"/>
  <path fill="#EFF0F1" d="M441.437 459.694C443.494 444.975 447.18 428.374 459.832 418.95Q462.042 417.313 464.374 415.854C462.182 424.677 459.923 433.577 456.152 441.886C461.674 446.2 466.834 450.861 471.888 455.706Q463.562 460.991 454.96 465.813C459.242 477.647 464.997 487.634 471.409 498.391C470.69 498.748 470.08 498.968 469.254 498.859C457.14 497.262 448.92 481.333 445.452 471.149C444.309 467.792 443.615 462.423 441.437 459.694Z" transform="matrix(0.9999999999999999, 0, 0, 0.9999999999999999, 0, 1.4210854715202004e-14)"/>
  <path fill="#C47751" d="M437.438 428.108C439.073 426.977 440.681 425.832 442.43 424.881C435.23 439.988 431.644 455.149 430.657 471.831C422.006 482.238 415.498 492.418 400.687 493.911C399.797 494.001 398.904 494.009 398.01 493.991C397.198 487.594 394.912 481.159 391.901 475.478C393.101 474.125 394.06 472.45 395.118 470.975C399.594 464.732 407.116 456.982 415.21 455.872C418.2 455.462 421.218 455.961 424.227 455.459C424.623 454.978 424.701 454.916 425.058 454.29C426.857 451.14 427.996 447.242 429.504 443.902C430.336 442.062 437.592 429.927 437.695 429.306C437.762 428.903 437.524 428.508 437.438 428.108Z" transform="matrix(0.9999999999999999, 0, 0, 0.9999999999999999, 0, 1.4210854715202004e-14)"/>
  <path fill="#228040" d="M484.536 595.426L501.467 596.415C504.405 599.854 507.138 602.932 511.352 604.873C522.797 610.141 537.248 603.092 547.958 598.947C546.596 604.596 545.147 609.363 541.929 614.292C536.231 620.329 529.396 624.987 521.079 626.358C512.75 627.73 503.574 625.725 496.748 620.714C487.901 614.217 485.987 605.629 484.536 595.426Z" transform="matrix(0.9999999999999999, 0, 0, 0.9999999999999999, 0, 1.4210854715202004e-14)"/>
  <path fill="#C2C0C1" d="M538.032 606.782C538.559 606.925 539.515 607.107 540.009 607.406C541.148 608.097 541.218 608.521 541.541 609.715C541.166 611.559 540.235 612.542 539.032 613.948C537.427 613.056 536.429 612.477 535.635 610.775C535.828 609.073 536.969 608.033 538.032 606.782Z" transform="matrix(0.9999999999999999, 0, 0, 0.9999999999999999, 0, 1.4210854715202004e-14)"/>
  <path fill="#EFF0F1" d="M594.312 388.976C596.552 391.671 596.597 396.336 596.314 399.709C595.069 414.538 586.431 427.935 579.32 440.632C570.906 443.887 562.628 447.134 554.553 451.173C555.512 453.936 556.413 456.738 557.454 459.47L557.036 460.218C555.458 463.095 554.564 466.398 553.11 469.369C548.778 478.226 540.683 490.07 530.783 493.062C529.389 493.484 528.084 493.99 526.643 493.52C538.491 467.005 554.118 442.07 571.404 418.792C578.976 408.596 588.37 400.399 594.312 388.976Z" transform="matrix(0.9999999999999999, 0, 0, 0.9999999999999999, 0, 1.4210854715202004e-14)"/>
  <path fill="#C2C0C1" d="M519.874 520.691L520.22 521.01C519.162 524.538 514.864 527.142 513.983 530.707C514.663 531.515 515.187 532.116 515.518 533.129C512.569 536.87 504.361 538.082 499.956 540.356C496.192 542.298 491.961 545.061 490.735 549.352C489.6 553.326 490.997 557.252 492.95 560.679C492.42 562.728 492.065 564.811 491.679 566.891C493.284 570.421 495.206 573.226 497.599 576.245C497.3 581.478 497.369 585.484 498.913 590.529C492.863 590.557 486.785 589.795 480.747 589.408C480.414 590.722 480.102 592.042 479.931 593.388C478.849 601.952 481.864 611.168 487.156 617.89C493.147 625.5 502.463 630.289 512.038 631.341C526.28 632.906 541.952 625.824 548.327 612.615C550.617 607.87 551.179 599.294 555.207 596.065L556.137 596.217C557.8 599.496 555.674 605.506 554.632 608.856C552.295 614.4 549.882 619.207 545.703 623.611C538.319 631.395 528.435 635.577 517.747 635.865C506.442 636.17 495.514 632.18 487.305 624.327C475.493 613.026 472.064 594.709 478.504 579.646C480.449 575.096 484.057 571.131 485.325 566.307C487.861 556.652 486.704 545.126 486.492 535.165C488.918 534.908 492.246 534.725 494.367 533.448C495.511 532.76 495.815 532.361 496.108 531.083C492.523 526.989 484.338 530.213 479.457 529.127L479.153 528.497C486.07 522.763 510.695 521.455 519.874 520.691Z" transform="matrix(0.9999999999999999, 0, 0, 0.9999999999999999, 0, 1.4210854715202004e-14)"/>
  <path fill="#C2C0C1" d="M590.661 253.609C601.283 256.254 611.304 262.258 617.013 271.816C620.624 277.862 622.369 285.245 620.427 292.152C617.872 301.24 609.462 308.169 601.415 312.415C595.265 315.661 587.789 319.159 581.111 321.059C577.86 317.762 575.5 315.593 571.01 314.09C569.054 309.611 567.2 305.378 564.739 301.128C573.257 296.572 583.139 296.827 591.596 292.568C595.987 290.356 599.461 286.789 600.894 282.015C602.947 275.174 600.323 268.414 597.152 262.424L590.661 253.609Z" transform="matrix(0.9999999999999999, 0, 0, 0.9999999999999999, 0, 1.4210854715202004e-14)"/>
  <path fill="#EFF0F1" d="M597.152 262.424C598.839 262.011 600.016 262.328 601.544 263.236C606.139 265.965 609.039 272.94 610.118 278.007C611.273 283.426 611.127 290.147 608.11 294.959C600.505 307.089 582.396 307.532 571.01 314.09C569.054 309.611 567.2 305.378 564.739 301.128C573.257 296.572 583.139 296.827 591.596 292.568C595.987 290.356 599.461 286.789 600.894 282.015C602.947 275.174 600.323 268.414 597.152 262.424Z" transform="matrix(0.9999999999999999, 0, 0, 0.9999999999999999, 0, 1.4210854715202004e-14)"/>
  <path fill="#EFF0F1" d="M567.6 455.4C576.863 451.024 587.05 448.48 597.177 447.263C598.898 448.492 599.794 450.208 600.887 451.973C600.14 455.027 599.628 458.823 598.328 461.649C598.25 461.84 598.169 462.029 598.092 462.22C596.516 466.163 596.131 470.292 595.566 474.465C593.379 490.607 590.844 500.422 574.638 507.499C564.199 512.057 554.029 513.837 543.179 509.519C542.612 509.293 542.045 509.075 541.5 508.799C553.06 495.99 568.348 487.777 578.126 473.188C578.012 473.075 577.897 472.963 577.785 472.848L577.23 472.269C572.736 467.656 569.912 461.341 567.6 455.4Z" transform="matrix(0.9999999999999999, 0, 0, 0.9999999999999999, 0, 1.4210854715202004e-14)"/>
  <path fill="#C2C0C1" d="M358.661 370.319C366.189 370.297 373.745 369.954 381.264 370.017Q381.343 399.084 381.01 428.149C380.985 436.952 381.941 446.155 380.794 454.881C380.516 456.994 379.981 458.519 378.485 460.076C376.14 462.515 372.029 463.789 368.878 464.848C365.269 463.525 359.619 461.993 357.97 458.083C355.445 452.094 357.282 433.298 357.6 426.363C359.663 423.759 361.959 421.162 363.549 418.243C367.473 409.649 367.163 404.131 367.004 394.993C369.569 394.95 373.255 395.833 375.553 394.591C376.299 394.188 376.405 393.065 376.652 392.289C373.146 390.296 370.511 390.664 366.643 391.173C366.651 388.661 367.135 384.771 365.474 382.702C363.998 380.864 361.22 380.494 359.063 380.014C358.977 376.781 358.939 373.543 358.661 370.319Z" transform="matrix(0.9999999999999999, 0, 0, 0.9999999999999999, 0, 1.4210854715202004e-14)"/>
  <path d="M368.388 376.459Q368.915 376.441 369.442 376.438C371.27 376.432 372.698 376.484 374.068 377.854C374.757 379.486 374.465 380.682 374.184 382.356C373.046 382.361 371.844 382.417 370.715 382.277C369.316 382.102 368.788 381.629 367.91 380.597C367.562 379.014 367.934 377.956 368.388 376.459Z" transform="matrix(0.9999999999999999, 0, 0, 0.9999999999999999, 0, 1.4210854715202004e-14)"/>
  <path d="M368.113 423.098C368.885 423.955 369.386 424.771 369.348 425.993C369.288 427.881 368.196 429.206 366.809 430.338C365.181 431.668 363.222 432.134 361.217 432.603C360.956 429.855 361.147 426.936 361.163 424.168C363.642 424.056 365.715 423.813 368.113 423.098Z" transform="matrix(0.9999999999999999, 0, 0, 0.9999999999999999, 0, 1.4210854715202004e-14)"/>
  <path fill="#228040" d="M376.652 392.289L376.582 393.023C375.303 407.167 376.33 422.072 376.546 436.295C376.629 441.743 377.309 447.998 376.317 453.35C375.977 455.186 375.167 456.778 373.696 457.961C371.888 459.416 369.542 459.646 367.318 459.289C365.14 458.94 363.426 457.866 361.652 456.615C360.797 448.474 360.92 440.773 361.217 432.603C363.222 432.134 365.181 431.668 366.809 430.338C368.196 429.206 369.288 427.881 369.348 425.993C369.386 424.771 368.885 423.955 368.113 423.098C368.859 422.691 368.745 422.57 369.044 421.817C368.786 421.269 368.554 420.735 368.137 420.284C366.86 418.902 365.352 418.445 363.549 418.243C367.473 409.649 367.163 404.131 367.004 394.993C369.569 394.95 373.255 395.833 375.553 394.591C376.299 394.188 376.405 393.065 376.652 392.289Z" transform="matrix(0.9999999999999999, 0, 0, 0.9999999999999999, 0, 1.4210854715202004e-14)"/>
  <path fill="#C2C0C1" d="M368.871 438.366C370.513 439.039 371.826 439.423 372.842 440.987C373.161 442.613 372.889 443.679 372.456 445.261C372.214 445.231 371.97 445.209 371.729 445.17C370.1 444.907 369.199 444.556 368.191 443.24C367.853 441.473 368.381 440.063 368.871 438.366Z" transform="matrix(0.9999999999999999, 0, 0, 0.9999999999999999, 0, 1.4210854715202004e-14)"/>
  <path fill="#CF8D7D" d="M468.336 386.95C469.428 385.936 470.565 385.046 471.823 384.242C486.19 375.058 513.952 377.852 529.992 381.348L528.161 383.52L526.297 386.358C528.868 387.903 531.729 389.564 532.603 392.648C533.779 396.794 530.768 401.143 528.701 404.517Q528.153 405.412 527.586 406.296C529.276 407.947 531.103 409.528 532.376 411.532L532.347 412.177C533.412 414.46 535.446 417.408 534.572 419.926C521.576 415.854 506.964 411.478 493.274 413.84C487.422 414.85 481.775 416.847 475.901 417.822L475.182 417.938C472.988 413.642 470.684 409.254 469.575 404.526C469.77 404.07 470.055 403.643 470.16 403.159C470.303 402.498 468.743 388.004 468.336 386.95Z" transform="matrix(0.9999999999999999, 0, 0, 0.9999999999999999, 0, 1.4210854715202004e-14)"/>
  <path d="M476.213 386.396C478.85 386.57 481.373 387.083 483.671 388.457C489.038 391.666 490.754 398.385 492.087 404.053C488.421 401.06 484.781 398.172 480.843 395.534L478.991 395.528C477.929 396.133 477.327 396.445 476.86 397.68C475.645 400.887 478.273 406.643 479.288 409.722C475.095 403.653 472.251 398.841 472.194 391.211C473.401 389.339 474.519 387.852 476.213 386.396Z" transform="matrix(0.9999999999999999, 0, 0, 0.9999999999999999, 0, 1.4210854715202004e-14)"/>
  <path d="M511.881 403.135C512.87 398.864 514.392 394.307 517.266 390.922C519.563 388.218 522.758 386.578 526.297 386.358C528.868 387.903 531.729 389.564 532.603 392.648C533.779 396.794 530.768 401.143 528.701 404.517Q528.153 405.412 527.586 406.296L526.587 406.719C524.941 405.66 528.195 399.552 526.941 396.805C526.533 396.569 526.25 396.367 525.754 396.288C521.486 395.612 515.094 400.743 511.881 403.135Z" transform="matrix(0.9999999999999999, 0, 0, 0.9999999999999999, 0, 1.4210854715202004e-14)"/>
  <path fill="#C2C0C1" d="M441.437 459.694C443.615 462.423 444.309 467.792 445.452 471.149C448.92 481.333 457.14 497.262 469.254 498.859C470.08 498.968 470.69 498.748 471.409 498.391C476.364 502.826 481.478 513.022 485.199 518.839Q483.732 519.442 482.288 520.1C478.935 521.63 474.384 524.357 473.318 528.207C472.936 529.587 472.979 530.834 473.68 532.099C475.102 534.662 477.897 535.492 480.502 536.342L480.495 564.056C472.34 575.063 468.003 588.569 469.791 602.276C471.747 617.276 480.055 626.572 491.636 635.489L461.861 635.666C464.957 599.568 467.437 561.875 460.45 526.096Q465.562 526.435 470.664 526.911C467.861 522.608 463.861 519.614 460.278 516.02C457.32 513.053 454.612 509.655 452.209 506.229C442.975 493.061 438.709 475.622 441.437 459.694Z" transform="matrix(0.9999999999999999, 0, 0, 0.9999999999999999, 0, 1.4210854715202004e-14)"/>
  <path fill="#C2C0C1" d="M570.45 591.497C575.899 590.667 586.602 597.706 592.484 599.48C600.422 601.874 608.491 603.39 616.669 604.677C618.494 615.204 621.445 625.37 623.971 635.73C614.226 635.559 604.358 635.415 594.622 635.839Q567.528 635.534 540.432 635.677C543.398 633.637 546.373 631.45 548.959 628.94C558.582 619.598 562.406 607.693 562.537 594.504L570.45 591.497Z" transform="matrix(0.9999999999999999, 0, 0, 0.9999999999999999, 0, 1.4210854715202004e-14)"/>
  <path fill="#C2C0C1" d="M541.5 508.799C542.045 509.075 542.612 509.293 543.179 509.519C554.029 513.837 564.199 512.057 574.638 507.499C590.844 500.422 593.379 490.607 595.566 474.465C596.131 470.292 596.516 466.163 598.092 462.22C598.169 462.029 598.25 461.84 598.328 461.649C598.797 472.758 599.284 482.647 603.828 492.977C599.345 506.599 597.81 520.712 602.961 534.416C598.385 536.856 593.949 539.18 588.899 540.466C568.464 545.672 543.157 533.581 522.036 533.313C527.562 524.202 533.716 516.144 541.5 508.799Z" transform="matrix(0.9999999999999999, 0, 0, 0.9999999999999999, 0, 1.4210854715202004e-14)"/>
  <path fill="#C47751" d="M512.35 347.51L519.089 347.522C525.348 355.673 531.374 364.178 542.382 365.572C548.12 366.299 554.228 365.677 559.995 365.378C567.128 366.249 574.582 366.703 581.759 367.076C577.823 371.178 574.137 374.896 569.364 378.042L578.634 377.988C575.242 385.188 572.185 393.245 566.463 398.919C565.515 394.778 564.548 390.755 562.848 386.847C561.642 399.422 559.485 411.852 549.175 420.304Q547.533 421.641 545.854 422.932C541.977 423.222 538.111 421.278 534.572 419.926C535.446 417.408 533.412 414.46 532.347 412.177L532.376 411.532C531.103 409.528 529.276 407.947 527.586 406.296Q528.153 405.412 528.701 404.517C530.768 401.143 533.779 396.794 532.603 392.648C531.729 389.564 528.868 387.903 526.297 386.358L528.161 383.52L529.992 381.348C535.761 382.456 541.102 385.529 546.365 388.026C544.382 385.971 542.291 383.934 539.921 382.325C523.528 371.198 499.001 373.075 480.521 376.472C482.532 373.728 486.377 369.462 486.877 366.117C487.004 365.268 486.561 365.135 486.038 364.554C493.277 364.498 499.331 363.231 504.646 357.832C507.672 354.757 510.068 351.151 512.35 347.51Z" transform="matrix(0.9999999999999999, 0, 0, 0.9999999999999999, 0, 1.4210854715202004e-14)"/>
  <path fill="#B15034" d="M532.347 412.177C537.223 414.206 542.723 418.689 545.854 422.932C541.977 423.222 538.111 421.278 534.572 419.926C535.446 417.408 533.412 414.46 532.347 412.177Z" transform="matrix(0.9999999999999999, 0, 0, 0.9999999999999999, 0, 1.4210854715202004e-14)"/>
  <path fill="#EEC2AE" d="M528.161 383.52C532.439 385.623 536.36 388.01 537.886 392.853C539.559 398.166 537.225 403.797 534.626 408.395C533.992 409.515 533.216 410.559 532.376 411.532C531.103 409.528 529.276 407.947 527.586 406.296Q528.153 405.412 528.701 404.517C530.768 401.143 533.779 396.794 532.603 392.648C531.729 389.564 528.868 387.903 526.297 386.358L528.161 383.52Z" transform="matrix(0.9999999999999999, 0, 0, 0.9999999999999999, 0, 1.4210854715202004e-14)"/>
  <path fill="#C47751" d="M527.582 539.422C540.972 538.934 553.512 545.056 566.671 546.537L569.942 554.3C572.201 560.854 574.941 573.878 571.601 580.375C570.519 582.479 568.003 583.963 565.991 585.043C562.369 586.987 558.15 588.202 554.326 589.719C546.603 592.783 538.997 596.307 531.001 598.603C525.514 600.179 519.345 601.682 514.085 598.718C513.937 598.635 513.792 598.548 513.646 598.463C512.157 597.238 510.901 595.792 509.602 594.373C519.727 589.529 530.804 587.34 540.891 582.311C533.611 582.872 510.929 588.406 506.104 586.122C505.331 585.29 504.382 584.356 503.996 583.266C503.572 582.067 503.515 580.977 504.174 579.84C507.622 573.889 528.176 571.261 535.13 569.779C529.876 566.258 510.418 569.301 503.992 570.107C503.746 567.868 501.767 564.064 500.145 562.507C506.791 557.625 524.82 558.19 528.547 554.301L528.218 553.699C519.443 551.567 507.646 552.365 499.088 555.096C506.694 540.744 520.766 547.467 527.582 539.422Z" transform="matrix(0.9999999999999999, 0, 0, 0.9999999999999999, 0, 1.4210854715202004e-14)"/>
  <path fill="#CF8D7D" d="M506.104 586.122C505.331 585.29 504.382 584.356 503.996 583.266C503.572 582.067 503.515 580.977 504.174 579.84C507.622 573.889 528.176 571.261 535.13 569.779C536.202 570.344 537.926 570.784 538.29 571.927C531.13 578.893 511.602 575.688 506.862 582.72C506.33 583.509 506.225 585.175 506.104 586.122Z" transform="matrix(0.9999999999999999, 0, 0, 0.9999999999999999, 0, 1.4210854715202004e-14)"/>
  <path fill="#864A2B" d="M558.785 551.895Q564.253 553.611 569.942 554.3C572.201 560.854 574.941 573.878 571.601 580.375C570.519 582.479 568.003 583.963 565.991 585.043C562.369 586.987 558.15 588.202 554.326 589.719C546.603 592.783 538.997 596.307 531.001 598.603C525.514 600.179 519.345 601.682 514.085 598.718C513.937 598.635 513.792 598.548 513.646 598.463C514.564 597.444 515.447 596.526 516.76 596.038C519.335 595.083 522.335 594.982 525.006 594.253Q535.81 591.21 546.226 587.027C552.616 584.389 559.994 581.27 562.641 574.328C565.592 566.587 562.068 558.831 558.785 551.895Z" transform="matrix(0.9999999999999999, 0, 0, 0.9999999999999999, 0, 1.4210854715202004e-14)"/>
  <path fill="#797879" d="M485.931 318.214C493.772 317.642 501.872 318.236 509.747 318.248L566.226 318.5C568.087 319.735 570.055 320.963 571.62 322.57Q571.98 322.934 572.322 323.316Q572.663 323.698 572.986 324.096Q573.308 324.494 573.61 324.908Q573.913 325.321 574.194 325.749Q574.476 326.177 574.736 326.619Q574.996 327.06 575.234 327.514Q575.472 327.967 575.688 328.432Q575.903 328.897 576.095 329.372Q576.287 329.847 576.455 330.331Q576.624 330.815 576.768 331.306Q576.913 331.798 577.033 332.296Q577.153 332.794 577.248 333.297Q577.343 333.8 577.413 334.308Q577.483 334.815 577.528 335.326Q577.574 335.836 577.594 336.348Q577.613 336.86 577.608 337.372C577.517 343.213 575.224 348.729 570.997 352.789C563.197 360.283 552.352 359.537 542.383 359.488C532.446 357.197 528.557 349.824 522.413 342.534C517.788 342.283 513.212 342.219 508.582 342.29C506.984 345.327 505.083 348.394 502.861 351.014C499.406 355.09 495.041 358.341 489.54 358.671C484.348 358.981 479.381 356.797 475.581 353.345C471.074 349.251 468.041 343.177 467.84 337.058C467.674 332.013 469.412 326.648 472.963 322.991C476.662 319.182 480.891 318.397 485.931 318.214Z" transform="matrix(0.9999999999999999, 0, 0, 0.9999999999999999, 0, 1.4210854715202004e-14)"/>
  <path d="M503.856 321.74C503.978 321.728 504.1 321.706 504.223 321.705C511.166 321.632 518.128 322.008 525.081 321.931C535.029 321.821 563.053 318.86 570.465 325.727C573.411 328.456 574.455 332.196 574.569 336.105C574.717 341.166 573.119 345.941 569.582 349.618C564.469 354.935 557.044 356.303 549.973 356.451C542.958 356.597 537.964 355.099 532.892 350.194C529.685 346.693 527.146 342.638 523.994 339.074C518.539 338.839 513.198 338.857 507.747 339.074C504.723 342.105 503.055 345.896 500.422 349.207Q499.908 349.841 499.333 350.42Q498.759 351 498.129 351.519Q497.5 352.039 496.823 352.494Q496.145 352.948 495.425 353.333Q494.706 353.719 493.952 354.031Q493.198 354.342 492.417 354.578Q491.635 354.814 490.834 354.97Q490.033 355.127 489.221 355.204Q488.427 355.283 487.629 355.281Q486.832 355.278 486.039 355.193Q485.245 355.108 484.465 354.942Q483.685 354.775 482.926 354.529Q482.167 354.284 481.438 353.961Q480.708 353.638 480.016 353.242Q479.323 352.846 478.675 352.38Q478.027 351.915 477.431 351.385C473.468 347.901 470.942 342.673 470.605 337.414C470.352 333.466 471.312 329.444 474.064 326.493C480.577 319.511 495.065 322.194 503.856 321.74Z" transform="matrix(0.9999999999999999, 0, 0, 0.9999999999999999, 0, 1.4210854715202004e-14)"/>
  <path fill="#629ACD" d="M477.148 344.733C477.022 343.083 476.157 341.295 475.892 339.595C475.453 336.791 475.476 332.762 477.344 330.412C479.581 327.598 483.035 327.326 486.334 327.074C481.332 331.856 480.14 338.772 477.148 344.733Z" transform="matrix(0.9999999999999999, 0, 0, 0.9999999999999999, 0, 1.4210854715202004e-14)"/>
  <path fill="#EFF0F1" d="M486.334 327.074L493.149 327.045C490.41 334.732 486.604 342.548 482.6 349.65C480.249 348.477 478.739 346.779 477.148 344.733C480.14 338.772 481.332 331.856 486.334 327.074Z" transform="matrix(0.9999999999999999, 0, 0, 0.9999999999999999, 0, 1.4210854715202004e-14)"/>
  <path fill="#629ACD" d="M563.508 327.587C566.367 328.809 569.065 330.635 570.294 333.639C571.288 336.068 570.559 338.818 569.428 341.06Q569.204 341.495 568.958 341.919Q568.712 342.342 568.445 342.752Q568.177 343.162 567.889 343.557Q567.6 343.953 567.292 344.333Q566.984 344.713 566.656 345.077Q566.329 345.441 565.983 345.787Q565.637 346.134 565.274 346.462Q564.91 346.79 564.531 347.099Q564.151 347.408 563.756 347.697Q563.361 347.986 562.951 348.254Q562.542 348.522 562.119 348.769Q561.696 349.016 561.261 349.24Q560.826 349.465 560.38 349.667Q559.934 349.869 559.478 350.047Q559.023 350.226 558.558 350.381Q558.094 350.535 557.622 350.666C555.292 351.321 552.742 351.465 550.33 351.529C556.611 345.146 560.107 335.743 563.508 327.587Z" transform="matrix(0.9999999999999999, 0, 0, 0.9999999999999999, 0, 1.4210854715202004e-14)"/>
  <path fill="#EFF0F1" d="M554.63 327.519C557.58 327.538 560.562 327.465 563.508 327.587C560.107 335.743 556.611 345.146 550.33 351.529Q546.322 351.232 542.323 350.831C544.506 342.473 549.114 334.132 554.63 327.519Z" transform="matrix(0.9999999999999999, 0, 0, 0.9999999999999999, 0, 1.4210854715202004e-14)"/>
  <path fill="#629ACD" d="M493.149 327.045Q523.892 326.958 554.63 327.519C549.114 334.132 544.506 342.473 542.323 350.831C533.778 348.52 532.684 337.859 525.12 334.172C519.579 331.471 509.64 332.853 503.996 334.805C500.463 338.89 497.495 344.105 494.46 348.608C490.46 349.573 486.69 349.674 482.6 349.65C486.604 342.548 490.41 334.732 493.149 327.045Z" transform="matrix(0.9999999999999999, 0, 0, 0.9999999999999999, 0, 1.4210854715202004e-14)"/>
  <path fill="#C2C0C1" d="M331.409 595.681L425.017 595.812Q425.488 615.668 425.477 635.53L331.321 635.528C331.643 622.268 331.354 608.95 331.409 595.681Z" transform="matrix(0.9999999999999999, 0, 0, 0.9999999999999999, 0, 1.4210854715202004e-14)"/>
  <path d="M333.762 611.657C338.026 611.61 342.314 611.868 346.575 612.019C347.033 617.561 348.167 625.755 345.538 630.899C343.93 631.95 342.171 632.729 340.217 632.675C337.344 632.594 335.364 630.692 333.48 628.748C333.453 623.04 333.417 617.359 333.762 611.657Z" transform="matrix(0.9999999999999999, 0, 0, 0.9999999999999999, 0, 1.4210854715202004e-14)"/>
  <path fill="#228040" d="M338.224 615.223L343.988 615.288Q344.005 618.441 343.969 621.594C343.935 623.853 344.085 627.426 342.424 629.025C340.854 629.047 339.415 629.017 337.865 628.759C336.367 625.73 336.522 620.304 337.097 616.988C337.298 615.831 337.279 615.892 338.224 615.223Z" transform="matrix(0.9999999999999999, 0, 0, 0.9999999999999999, 0, 1.4210854715202004e-14)"/>
  <path d="M390.785 605.028C393.671 604.917 398.496 604.194 400.971 606.054C402.257 607.02 402.134 608.551 402.33 609.99L403.382 610.673C404.94 610.733 405.375 610.817 406.799 610.082C407.355 608.92 407.969 607.317 408.965 606.472C411.617 604.225 416.994 605.304 420.153 605.617C421.588 612.693 422.861 622.906 419.892 629.742C419.287 631.135 418.331 632.481 416.769 632.87C415.141 633.275 413.404 632.54 412.017 631.743C405.802 628.17 409.338 620.978 407.836 615.165C407.42 614.691 407.131 614.122 406.476 613.987C404.796 613.639 402.826 614.54 401.492 615.503C401.45 619.365 402.912 625.767 400.696 629.123C399.713 630.611 397.187 632.698 395.333 632.793C394.012 632.861 393.044 632.304 392.225 631.321C388.708 627.099 389.545 619.165 389.81 614.013L382.47 614.013C382.538 618.378 383.897 626.403 380.915 630.004C379.849 631.291 378.547 631.923 376.892 632.001C375.258 632.077 373.624 631.682 372.456 630.455C369.193 627.028 370.372 618.788 370.493 614.372L362.932 614.313Q363.008 614.889 363.072 615.467C363.615 620.437 364.389 626.497 360.846 630.587C359.833 631.757 358.506 632.682 356.889 632.638C355.728 632.606 354.672 631.802 353.946 630.951C350.394 626.789 350.532 616.029 350.968 610.618C351.159 608.238 351.195 606.834 353.074 605.255C355.397 605.198 358.633 604.779 360.822 605.582C362.595 606.233 363.173 607.243 363.897 608.921L364.242 609.735C365.482 610.706 366.254 610.864 367.756 611.143C369.001 610.761 369.635 610.582 370.465 609.552C370.469 608.533 370.385 607.619 370.787 606.663C371.126 605.855 372.581 605.181 373.419 604.935C379.076 603.273 381.479 608.914 385.848 610.556C387.142 611.043 387.449 610.843 388.621 610.324C390.057 608.824 390.315 606.978 390.785 605.028Z" transform="matrix(0.9999999999999999, 0, 0, 0.9999999999999999, 0, 1.4210854715202004e-14)"/>
  <path fill="#B15034" d="M354.651 608.433C355.879 608.426 357.795 608.282 358.694 609.214C361.693 612.325 360.02 624.349 359.97 628.508C358.637 628.55 357.635 628.598 356.371 628.067C352.789 624.007 354.456 613.576 354.651 608.433Z" transform="matrix(0.9999999999999999, 0, 0, 0.9999999999999999, 0, 1.4210854715202004e-14)"/>
  <path fill="#B15034" d="M393.085 608.681C393.884 608.654 394.7 608.607 395.499 608.652C396.856 608.728 397.243 608.794 398.106 609.848C399.374 615.349 399.022 623.406 397.724 628.852C396.451 628.599 395.603 628.296 394.484 627.636C390.925 622.842 392.69 614.303 393.085 608.681Z" transform="matrix(0.9999999999999999, 0, 0, 0.9999999999999999, 0, 1.4210854715202004e-14)"/>
  <path fill="#228040" d="M374.617 608.751C376.132 608.7 377.592 608.734 379.103 608.838C380.171 611.676 379.859 625.567 378.869 628.666C377.31 628.568 375.474 628.71 374.146 627.805C372.68 622.659 373.038 614.682 373.726 609.34L374.617 608.751Z" transform="matrix(0.9999999999999999, 0, 0, 0.9999999999999999, 0, 1.4210854715202004e-14)"/>
  <path fill="#228040" d="M411.147 608.597L417.976 608.857C418.043 615.595 417.957 622.25 417.382 628.968C416.087 629.035 413.8 629.34 412.822 628.395C409.983 625.652 411.253 612.722 411.147 608.597Z" transform="matrix(0.9999999999999999, 0, 0, 0.9999999999999999, 0, 1.4210854715202004e-14)"/>
  <path fill="#864A2B" d="M358.305 467.31C364.704 470.183 369.73 471.489 376.657 469.251C391.401 486.868 392.458 500.692 393.743 522.95C396.192 513.65 398.071 503.635 398.01 493.991C398.904 494.009 399.797 494.001 400.687 493.911C415.498 492.418 422.006 482.238 430.657 471.831C430.578 480.343 429.605 487.653 424.769 494.888C423.601 496.634 416.849 503.904 417.648 505.344C422.382 503.015 426.825 500.252 431.317 497.496C432.473 496.413 433.686 495.352 434.769 494.197C437.547 499.804 440.422 505.374 443.149 511.004C433.792 518.223 424.417 524.974 412.862 528.229C409.199 529.261 405.142 529.015 401.604 530.452C400.416 530.935 399.325 531.856 398.292 532.604C393.941 535.755 389.772 539.164 385.169 541.951C382.612 543.5 379.592 544.569 377.151 546.199C371.895 542.173 366.482 538.419 361.6 533.929C361.206 533.613 360.803 533.307 360.435 532.963C356.641 529.421 353.422 524.705 350.656 520.333C340.527 504.322 337.51 490.393 336.87 471.786C339.517 472.218 342.033 472.059 344.675 472.265C349.708 471.233 353.772 469.718 358.305 467.31Z" transform="matrix(0.9999999999999999, 0, 0, 0.9999999999999999, 0, 1.4210854715202004e-14)"/>
  <path fill="#C47751" d="M417.648 505.344C422.382 503.015 426.825 500.252 431.317 497.496C431.873 503.294 429.703 508.341 426.084 512.789C422.697 516.951 417 521.744 411.531 522.328C409.536 522.541 407.545 522.074 406.019 520.723C404.22 519.13 402.768 516.298 402.82 513.871C402.856 512.238 403.373 510.463 404.554 509.286C407.316 506.532 413.685 507.863 417.648 505.344Z" transform="matrix(0.9999999999999999, 0, 0, 0.9999999999999999, 0, 1.4210854715202004e-14)"/>
  <path fill="#C47751" d="M336.87 471.786C339.517 472.218 342.033 472.059 344.675 472.265C349.302 478.06 351.815 486.421 355.573 492.895C361.043 502.319 367.851 510.627 372.542 520.557C367.816 517.625 362.927 514.951 358.359 511.773C360.63 514.885 362.894 517.968 365.556 520.762C369.027 524.406 378.378 530.61 379.676 534.834C379.415 535.536 379.498 535.854 378.747 536.184C374.47 538.067 366.095 534.921 361.6 533.929C361.206 533.613 360.803 533.307 360.435 532.963C356.641 529.421 353.422 524.705 350.656 520.333C340.527 504.322 337.51 490.393 336.87 471.786Z" transform="matrix(0.9999999999999999, 0, 0, 0.9999999999999999, 0, 1.4210854715202004e-14)"/>
  <path fill="#864A2B" d="M608.641 472.445L608.617 470.252C608.505 464.035 609.55 458.035 611.413 452.109C614.196 443.254 619.282 432.141 628.046 427.835C635.006 424.415 647.096 425.231 654.327 427.724L653.792 428.319C665.936 441.358 675.598 448.028 679.478 466.76C680.37 471.068 680.596 477.256 682.9 480.955C680.876 489.668 676.919 497.669 675.037 506.495C681.109 503.09 684.992 498.263 688.804 492.519C692.926 502.343 694.852 511.172 695.209 521.795C695.334 525.521 694.624 531.31 695.801 534.665C693.064 541.898 688.992 548.7 686.48 555.976C683.932 563.355 683.376 571.714 680.134 578.801C679.104 581.054 677.915 583.36 675.545 584.41C671.495 586.206 666.483 585.176 662.195 586.448C656.664 588.089 651.388 590.623 645.783 592.014C624.018 597.416 602.453 592.844 581.88 585.078C582.567 580.068 583.086 575.17 583.169 570.112C582.854 565.679 582.393 561.245 581.519 556.885L578.504 547.535C594.792 546.223 601.774 541.806 616.566 536.205C631.404 530.588 647.802 531.169 663.221 534.042C664.234 533.607 664.827 533.001 665.633 532.274C662.41 528.999 658.494 527.734 654.071 526.871C642.929 524.085 632.297 525.013 621.118 526.803C618.423 519.032 617.732 510.104 618.035 501.936C618.239 496.444 621.285 484.714 619.446 480.155C619.449 479.09 619.613 479.175 618.903 478.269C616.202 478.502 613.551 481.647 611.655 483.435C610.386 479.835 609.53 476.153 608.641 472.445Z" transform="matrix(0.9999999999999999, 0, 0, 0.9999999999999999, 0, 1.4210854715202004e-14)"/>
  <path fill="#C47751" d="M632.519 429.313C642.866 433.507 649.809 436.638 654.354 447.509C658.91 458.407 658.411 471.552 653.926 482.388C652.498 485.838 650.683 488.83 648.353 491.758C644.032 488.829 639.679 486.368 635.062 483.957C644.99 491.856 653.653 504.144 655.072 517.041C655.417 520.186 655.545 524.015 654.071 526.871C642.929 524.085 632.297 525.013 621.118 526.803C618.423 519.032 617.732 510.104 618.035 501.936C618.239 496.444 621.285 484.714 619.446 480.155C619.449 479.09 619.613 479.175 618.903 478.269C616.202 478.502 613.551 481.647 611.655 483.435C610.386 479.835 609.53 476.153 608.641 472.445C611.156 471.301 614.674 472.823 617.145 473.747C620.954 475.172 624.807 476.861 628.46 478.646C623.326 467.787 619.29 456.079 623.561 444.229C625.524 438.783 628.704 433.649 632.519 429.313Z" transform="matrix(0.9999999999999999, 0, 0, 0.9999999999999999, 0, 1.4210854715202004e-14)"/>
  <path fill="#C47751" d="M665.633 532.274C666.722 529.07 669.568 514.133 670.892 513.419C675.54 516.417 677.656 520.677 678.767 525.999C680.67 535.118 678.965 544.827 674.815 553.116C675.406 554.601 675.451 554.856 675.208 556.432C676.334 562.243 675.029 569.606 671.696 574.483C666.846 581.58 656.797 584.241 648.753 585.568C638.542 587.252 627.646 587.027 617.404 585.719C628.212 582.062 637.821 577.669 645.93 569.39C628.288 574.519 611.115 578.745 592.631 575.606C589.717 575.11 586.652 574.731 583.859 573.753C583.526 572.68 583.651 570.978 583.169 570.112C582.854 565.679 582.393 561.245 581.519 556.885L578.504 547.535C594.792 546.223 601.774 541.806 616.566 536.205C631.404 530.588 647.802 531.169 663.221 534.042C664.234 533.607 664.827 533.001 665.633 532.274Z" transform="matrix(0.9999999999999999, 0, 0, 0.9999999999999999, 0, 1.4210854715202004e-14)"/>
  <path d="M674.815 553.116C675.406 554.601 675.451 554.856 675.208 556.432C670.676 564.789 665.955 567.886 657.086 570.737C663.512 565.188 668.95 559.211 674.815 553.116Z" transform="matrix(0.9999999999999999, 0, 0, 0.9999999999999999, 0, 1.4210854715202004e-14)"/>
  <path fill="#EEC2AE" d="M578.504 547.535C594.792 546.223 601.774 541.806 616.566 536.205C631.404 530.588 647.802 531.169 663.221 534.042C653.864 540.99 624.357 536.518 606.856 549.624C617.231 552.019 627.692 552.491 638.285 551.609C623.092 556.327 597.719 559.353 581.519 556.885L578.504 547.535Z" transform="matrix(0.9999999999999999, 0, 0, 0.9999999999999999, 0, 1.4210854715202004e-14)"/>
</svg>
